# Blender v2.79 (sub 0) OBJ File: ''
# www.blender.org
mtllib fishReduced.mtl
o fish
v 0.128099 2.479363 0.230876
v 0.048079 2.947165 0.431408
v 0.098824 2.550486 -0.213338
v 0.041097 2.952204 -0.237352
v 0.001045 3.759898 0.158174
v 0.338542 0.715341 0.690135
v 0.455871 0.193133 -0.053632
v 0.391712 0.980007 -0.375272
v 0.340094 1.544725 0.281588
v 0.318199 0.841573 -0.745306
v 0.004673 2.792148 0.475760
v 0.026135 2.398067 0.535195
v 0.130813 -2.055720 0.652677
v 0.134650 -2.637303 0.111409
v -0.017882 -2.688853 0.146729
v -0.057402 -1.706748 0.997302
v 0.074839 -1.640828 1.021416
v 0.014281 -1.273030 1.226975
v 0.002399 2.394299 0.527305
v 0.133313 -0.873787 -1.255994
v 0.177270 -0.407054 -1.219427
v 0.145777 0.404462 -1.127427
v 0.142688 1.436160 -0.821899
v 0.035463 1.394164 -0.913475
v 0.026529 2.492091 -0.311985
v -0.001274 2.969059 -0.271650
v -0.019541 3.485281 -0.491029
v 0.255020 1.468082 0.706247
v 0.192754 0.224068 1.101271
v 0.340823 -1.337211 0.646499
v 0.026931 -2.911764 -0.252477
v 0.222687 -2.289663 -0.053915
v 0.298049 -2.468043 -0.484807
v 0.241530 -1.868293 0.189398
v 0.235754 -2.263387 0.185551
v 0.192276 -2.107438 0.309709
v 0.180328 -2.282553 0.223153
v 0.267237 -1.906983 -0.134292
v 0.316107 -1.724121 0.161764
v 0.373129 -1.818731 -0.321247
v 0.194128 -2.690940 -0.456416
v -0.135926 -2.762511 -0.395273
v 0.120469 1.989800 -0.457021
v 0.004922 1.936223 -0.563639
v 0.069122 -2.875263 -0.385951
v 0.002891 4.156054 0.583144
v 0.010605 4.262832 1.156825
v -0.000075 4.420670 1.058831
v -0.013205 4.284607 1.147160
v 0.005278 4.118056 -0.221744
v 0.025661 4.315790 -0.661026
v -0.001643 4.237784 -0.694043
v -0.001366 4.670354 -0.583653
v 0.022418 1.168090 1.189652
v 0.004356 -0.354941 1.396273
v 0.000785 2.556736 1.695422
v 0.001418 1.340535 1.293553
v 0.005100 2.085777 -1.128553
v 0.002056 2.508285 -1.556682
v 0.002028 1.897429 -0.795758
v 0.002304 0.643466 -1.128698
v 0.166198 0.559657 -1.239608
v 0.172405 0.503585 -1.222902
v 0.227692 0.292668 -1.367725
v 0.139662 -0.253268 -1.214651
v 0.219754 0.980509 -1.340642
v -0.079184 -0.706885 -1.279689
v 0.005044 -0.258244 -1.266791
v 0.229682 -0.776850 1.080355
v -0.052016 -2.891349 -0.392401
v -0.005353 4.318645 -0.596761
v 0.483020 -1.311255 -0.580433
v 0.550102 -1.201936 -0.636422
v 0.464281 -1.441029 -0.357852
v 0.593323 -0.835327 -0.429180
v 0.519593 -0.829512 0.329505
v 0.481190 -1.355044 -0.431439
v 0.448579 -0.946282 0.237596
v -0.068496 2.849082 -0.045080
v -0.045054 2.655909 0.415523
v -0.384720 -0.162418 0.669039
v -0.448372 -0.788574 -0.742011
v -0.453674 0.173255 -0.156688
v -0.339402 1.192307 -0.441566
v -0.269604 1.372982 0.710225
v -0.326522 1.641236 0.237208
v -0.479717 -1.341899 -0.444920
v -0.192717 0.510960 -1.055544
v -0.156429 1.413032 -0.815684
v -0.143765 -2.677293 0.024068
v -0.113147 -1.104254 1.183684
v -0.323038 -1.451220 0.632848
v -0.190193 -0.253858 1.161879
v -0.028176 1.068772 1.191185
v -0.154353 -1.408408 -1.195269
v -0.166588 -0.357130 -1.218289
v -0.028621 1.350008 -0.932777
v -0.068611 2.448978 -0.299451
v -0.194688 -1.897565 0.478024
v -0.055874 -2.241215 0.622421
v -0.231086 -1.897336 0.218649
v -0.119718 1.987363 -0.456006
v -0.262428 -1.850626 0.027257
v -0.265667 -1.987825 -0.164745
v -0.203107 -2.321928 0.024140
v -0.224574 -2.194859 -0.157048
v -0.189804 -2.269782 0.228534
v -0.194277 -2.074501 0.312807
v -0.164747 -2.172810 0.346312
v -0.284382 -2.477238 -0.529511
v -0.039703 2.230252 0.628548
v -0.003431 4.788970 1.197033
v -0.003108 2.475963 0.728867
v -0.237023 0.423431 -1.371491
v -0.116237 0.378556 -1.133628
v -0.170722 0.553672 -1.242180
v -0.219222 1.012090 -1.341954
v -0.212922 0.171477 -1.350899
v -0.138228 -0.261930 -1.215813
v -0.336298 -1.100567 -1.013676
v -0.526460 -0.781299 0.337917
v -0.462263 -1.442325 -0.345093
v -0.482470 -1.335514 -0.562156
v -0.601523 -0.847590 -0.501794
v 0.396600 -1.752313 -0.721799
v 0.141507 -2.535924 -0.716231
v -0.070073 -2.489351 -0.785882
v 0.047198 -2.165366 -0.962335
v 0.078808 -1.473857 -1.214341
v 0.324083 -1.165006 -1.037469
v 0.332232 -1.651711 -0.907988
v 0.237423 -1.801125 -0.997938
v -0.165316 -2.576106 -0.670811
v -0.421511 -1.513554 -0.753512
v -0.218213 -1.830062 -1.006610
vt 0.754330 0.821289
vt 0.704878 0.735044
vt 0.762120 0.740234
vt 0.864264 0.791242
vt 0.133470 0.819415
vt 0.091610 0.828480
vt 0.053680 0.755153
vt 0.042386 0.767970
vt 0.144618 0.876246
vt 0.173965 0.881241
vt 0.220247 0.915692
vt 0.446342 0.605259
vt 0.571318 0.634802
vt 0.570891 0.654682
vt 0.737205 0.832820
vt 0.686289 0.835319
vt 0.696393 0.799429
vt 0.495030 0.671617
vt 0.079331 0.683297
vt 0.102161 0.739742
vt 0.144268 0.733534
vt 0.106520 0.765869
vt 0.146232 0.770933
vt 0.166437 0.765116
vt 0.098984 0.772978
vt 0.022027 0.715240
vt 0.023740 0.691331
vt 0.048831 0.680993
vt 0.121297 0.785158
vt 0.641685 0.700812
vt 0.704573 0.719609
vt 0.569653 0.853392
vt 0.471945 0.837471
vt 0.577430 0.798546
vt 0.919173 0.914511
vt 0.909478 0.742331
vt 0.931861 0.693352
vt 0.924685 0.685337
vt 0.979426 0.703218
vt 0.414095 0.895796
vt 0.528182 0.908999
vt 0.551127 0.932028
vt 0.701025 0.984831
vt 0.940159 0.907405
vt 0.988687 0.928062
vt 0.715198 0.556450
vt 0.658730 0.612375
vt 0.639078 0.653293
vt 0.643283 0.680407
vt 0.507213 0.718625
vt 0.814856 0.983759
vt 0.772827 0.949448
vt 0.769524 0.943286
vt 0.874709 0.939619
vt 0.794332 0.912350
vt 0.779925 0.890726
vt 0.741508 0.851589
vt 0.818013 0.887325
vt 0.312220 0.561941
vt 0.357365 0.572889
vt 0.284711 0.579320
vt 0.343947 0.590896
vt 0.361778 0.588823
vt 0.408374 0.745290
vt 0.279640 0.769420
vt 0.287279 0.892417
vt 0.336806 0.938418
vt 0.483211 0.598120
vt 0.017449 0.685879
vt 0.024776 0.680969
vt 0.788506 0.653008
vt 0.784929 0.674766
vt 0.768859 0.631339
vt 0.736853 0.699695
vt 0.853060 0.638884
vt 0.846670 0.573240
vt 0.873804 0.618020
vt 0.840707 0.650490
vt 0.752117 0.577841
vt 0.866298 0.635215
vt 0.222854 0.692159
vt 0.211189 0.701101
vt 0.218424 0.827592
vt 0.166055 0.709647
vt 0.227675 0.677676
vt 0.696275 0.116450
vt 0.589523 0.204736
vt 0.459475 0.192964
vt 0.655451 0.291390
vt 0.457576 0.335660
vt 0.422722 0.278706
vt 0.769477 0.140571
vt 0.532103 0.096629
vt 0.425492 0.144906
vt 0.634469 0.053484
vt 0.671091 0.032916
vt 0.766009 0.035962
vt 0.542006 0.077245
vt 0.422752 0.120666
vt 0.800300 0.274107
vt 0.663423 0.361029
vt 0.300105 0.226509
vt 0.355495 0.197053
vt 0.257069 0.280806
vt 0.902243 0.184522
vt 0.861733 0.169455
vt 0.886856 0.163486
vt 0.857172 0.215917
vt 0.900609 0.207811
vt 0.880078 0.223433
vt 0.943771 0.176232
vt 0.892278 0.225932
vt 0.864721 0.244088
vt 0.955406 0.116459
vt 0.910519 0.111661
vt 0.353622 0.177111
vt 0.295932 0.220323
vt 0.145866 0.312642
vt 0.105526 0.375490
vt 0.074698 0.215443
vt 0.170705 0.227426
vt 0.065104 0.230791
vt 0.103287 0.444932
vt 0.081042 0.438414
vt 0.037974 0.462326
vt 0.503149 0.392960
vt 0.471818 0.417331
vt 0.330467 0.485740
vt 0.320657 0.362847
vt 0.365904 0.342331
vt 0.021685 0.236676
vt 0.353854 0.149465
vt 0.325346 0.110274
vt 0.242558 0.435728
vt 0.276142 0.444483
vt 0.251967 0.457543
vt 0.280172 0.357203
vt 0.235794 0.409089
vt 0.188922 0.413706
vt 0.216281 0.390435
vt 0.621997 0.037544
vt 0.731082 0.071830
vt 0.129484 0.096670
vt 0.137052 0.159863
vt 0.123575 0.158228
vt 0.767474 0.125608
vt 0.847923 0.193803
vt 0.784750 0.148993
vt 0.848707 0.316794
vt 0.774081 0.352886
vt 0.804586 0.360376
vt 0.905825 0.264968
vt 0.174026 0.657698
vt 0.071781 0.646846
vt 0.027107 0.666407
vt 0.064152 0.632641
vt 0.113051 0.612527
vt 0.163935 0.614843
vt 0.203085 0.580255
vt 0.246595 0.616335
vt 0.189866 0.631617
vt 0.921694 0.087589
vt 0.914191 0.065281
vt 0.966828 0.107072
vt 0.796283 0.089466
vt 0.822755 0.061988
vt 0.776605 0.018355
vt 0.890773 0.047800
vt 0.689270 0.839247
vt 0.761822 0.728745
vt 0.908322 0.847040
vt 0.934421 0.700799
vt 0.833867 0.702865
vt 0.699071 0.859955
vt 0.749741 0.937342
vt 0.709773 0.850190
vt 0.756719 0.892080
vt 0.884820 0.943479
vt 0.695255 0.643782
vt 0.975869 0.137851
vt 0.282638 0.338609
vt 0.290184 0.321150
vt 0.324703 0.339787
vt 0.131314 0.432454
vt 0.958179 0.194475
vt 0.694563 0.398477
vt 0.502817 0.077325
vt 0.239703 0.239948
vt 0.095550 0.269311
vt 0.050711 0.462548
vt 0.267583 0.063848
vt 0.214828 0.502112
vt 0.306260 0.353424
vt 0.266198 0.397275
vt 0.229022 0.425301
vt 0.153744 0.460658
vt 0.141859 0.466456
vt 0.616980 0.055748
vt 0.229397 0.141528
vt 0.257062 0.210486
vt 0.205117 0.167746
vt 0.338038 0.150271
vt 0.236772 0.088977
vt 0.152298 0.169588
vn 0.9822 -0.0235 0.1865
vn 0.9270 0.1807 -0.3286
vn 0.9176 0.0296 -0.3964
vn 0.0311 0.9340 -0.3560
vn 0.7573 -0.4289 0.4925
vn -0.3164 -0.6272 0.7117
vn 0.7367 -0.5416 0.4049
vn -0.0946 -0.7945 0.5998
vn -0.4394 -0.4733 0.7635
vn 0.5430 -0.4138 0.7307
vn 0.1288 -0.3071 0.9429
vn 0.6147 0.1629 -0.7718
vn 0.8770 0.1757 -0.4472
vn 0.7240 0.3443 -0.5977
vn 0.4928 -0.2372 0.8372
vn 0.7479 0.5190 0.4138
vn 0.9720 0.1895 0.1389
vn 0.9129 0.1353 -0.3852
vn 0.9438 -0.3102 -0.1144
vn 0.9794 -0.1512 0.1337
vn 0.9339 -0.2889 0.2107
vn 0.8058 -0.5246 0.2749
vn 0.9526 -0.2830 0.1119
vn 0.9287 -0.3421 0.1432
vn 0.8795 -0.3547 0.3174
vn 0.1145 -0.9923 -0.0482
vn -0.7859 -0.6179 -0.0243
vn 0.8301 -0.5485 -0.1006
vn 0.9546 -0.1173 0.2739
vn 0.6836 0.3255 -0.6532
vn 0.2991 0.2562 -0.9192
vn 0.8974 0.2004 0.3932
vn 0.9591 0.0630 0.2761
vn 0.9827 0.1655 0.0832
vn 0.4536 -0.2511 0.8551
vn 0.0300 0.7171 0.6964
vn 0.8963 0.1890 -0.4012
vn -0.2097 -0.1339 -0.9686
vn -0.0275 0.9845 0.1732
vn 0.8597 0.0569 0.5076
vn 0.9426 0.0706 0.3262
vn 0.3666 -0.2736 0.8892
vn -0.0027 0.6425 0.7663
vn 0.0226 0.5675 -0.8231
vn -0.0067 0.9863 0.1651
vn -0.0017 0.8721 -0.4894
vn 0.0090 0.7443 0.6677
vn -0.0166 0.9873 0.1579
vn 0.0038 0.5241 -0.8516
vn 0.9821 0.1278 -0.1386
vn 0.0696 0.9858 -0.1528
vn -0.8939 0.2238 0.3883
vn 0.8955 0.1059 0.4323
vn -0.1477 0.0192 -0.9888
vn 0.4025 0.0972 -0.9102
vn -0.2815 -0.0203 -0.9593
vn 0.0137 0.1148 -0.9933
vn 0.4307 -0.0492 -0.9012
vn 0.6509 0.0530 -0.7574
vn 0.9987 0.0420 0.0279
vn 0.9886 -0.0446 0.1438
vn 0.8751 -0.0677 0.4793
vn 0.0305 -0.0047 0.9995
vn -0.0286 0.2296 -0.9729
vn -0.2993 -0.9015 0.3127
vn 0.4890 -0.7463 0.4516
vn 0.9731 -0.0781 -0.2169
vn 0.2206 0.2202 -0.9502
vn 0.9740 -0.2002 0.1061
vn 0.2206 0.9116 -0.3469
vn 0.0939 0.9941 -0.0551
vn 0.0029 0.4330 0.9014
vn 0.9439 -0.1628 0.2874
vn 0.9242 -0.2407 0.2966
vn -0.9649 0.0407 -0.2593
vn -0.9985 0.0534 -0.0086
vn -0.9658 0.1470 -0.2135
vn -0.9707 0.0097 0.2400
vn -0.9127 0.1729 0.3704
vn -0.9800 0.1772 0.0908
vn -0.0642 0.9926 0.1029
vn -0.7437 0.1760 -0.6450
vn -0.7342 0.3274 -0.5948
vn -0.6397 0.0646 -0.7659
vn -0.4846 -0.1753 -0.8570
vn -0.4397 0.1685 -0.8822
vn -0.8837 0.1634 -0.4385
vn -0.9412 -0.1940 0.2767
vn -0.8573 0.0104 0.5148
vn -0.6913 0.2746 -0.6684
vn -0.7461 0.3147 -0.5868
vn -0.9918 0.0984 -0.0820
vn -0.9856 -0.1584 0.0592
vn -0.9404 -0.1745 0.2918
vn -0.9733 -0.1731 0.1509
vn -0.9852 -0.1046 0.1359
vn -0.9366 -0.2161 0.2758
vn -0.9661 -0.1537 0.2073
vn -0.7919 -0.5309 0.3017
vn -0.3905 0.7636 -0.5143
vn -0.9482 -0.2725 0.1636
vn -0.9382 -0.3169 -0.1389
vn 0.0265 0.8444 -0.5350
vn -0.3016 -0.2297 -0.9254
vn -0.4457 0.6762 0.5865
vn -0.8541 -0.0770 0.5144
vn -0.9295 0.0661 0.3628
vn -0.1917 0.9792 -0.0673
vn -0.9439 0.1811 0.2762
vn -0.5765 0.0493 -0.8156
vn 0.4026 0.3085 0.8618
vn -0.0302 0.9979 -0.0567
vn -0.1830 -0.1642 -0.9693
vn -0.8483 -0.0335 -0.5285
vn -0.2345 0.7593 -0.6070
vn -0.9900 -0.0916 -0.1077
vn -0.9573 -0.2484 0.1476
vn -0.9786 -0.1816 0.0971
vn -0.7465 -0.1547 0.6471
vn 0.9450 -0.1824 -0.2714
vn 0.5023 -0.5389 -0.6763
vn -0.2018 -0.5363 -0.8195
vn 0.1310 -0.4038 -0.9054
vn 0.6901 -0.2757 -0.6691
vn 0.2864 -0.2117 -0.9344
vn 0.8361 -0.0543 -0.5458
vn 0.8677 -0.1584 -0.4712
vn -0.5919 -0.5570 -0.5826
vn -0.9409 -0.1493 -0.3040
vn -0.6377 -0.2926 -0.7126
vn -0.2733 0.6291 0.7277
vn -0.3215 -0.1950 -0.9266
vn -0.9285 0.1072 0.3556
vn 0.1414 0.0080 -0.9899
vn -0.0082 0.4652 0.8852
usemtl 13007_Blue_Green_Reef_Chromis_v1
s 1
f 2/1/1 3/2/2 4/3/3
f 4/3/3 5/4/4 2/1/1
f 13/5/5 100/6/6 14/7/7
f 15/8/8 14/7/7 100/6/6
f 16/9/9 17/10/10 18/11/11
f 22/12/12 24/13/13 23/14/14
f 11/15/15 12/16/16 1/17/17
f 22/12/12 23/14/14 10/18/18
f 100/6/6 17/10/10 16/9/9
f 100/6/6 13/5/5 17/10/10
f 33/19/19 32/20/20 14/7/7
f 32/20/20 38/21/21 35/22/22
f 34/23/23 38/21/21 39/24/24
f 37/25/25 13/5/5 14/7/7
f 32/20/20 33/19/19 38/21/21
f 31/26/26 42/27/27 41/28/28
f 32/20/20 35/22/22 37/25/25
f 13/5/5 36/29/29 34/23/23
f 43/30/30 25/31/31 3/2/2
f 28/32/32 6/33/33 9/34/34
f 9/34/34 1/17/17 28/32/32
f 12/16/16 28/32/32 1/17/17
f 11/15/15 2/1/1 47/35/35
f 5/4/4 4/3/3 50/36/36
f 51/37/37 4/3/3 52/38/38
f 51/37/37 52/38/38 53/39/39
f 29/40/40 28/32/32 54/41/41
f 57/42/42 54/41/41 56/43/43
f 47/35/35 48/44/44 112/45/45
f 24/13/13 59/46/46 58/47/47
f 60/48/48 24/13/13 58/47/47
f 44/49/49 23/14/14 24/13/13
f 3/2/2 9/34/34 8/50/50
f 66/51/51 62/52/52 63/53/53
f 65/54/54 22/55/12 62/56/52
f 62/56/52 66/57/51 64/58/55
f 67/59/56 68/60/57 20/61/58
f 21/62/59 68/60/57 65/63/54
f 68/60/57 21/62/59 20/61/58
f 7/64/60 6/33/33 78/65/61
f 69/66/62 78/65/61 6/33/33
f 69/66/62 55/67/63 18/11/11
f 65/63/54 68/60/57 61/68/64
f 61/68/64 22/12/12 65/63/54
f 15/8/8 31/26/26 14/7/7
f 70/69/65 45/70/66 42/27/27
f 41/28/28 42/27/27 45/70/66
f 72/71/67 73/72/68 74/73/69
f 75/74/70 74/73/69 73/72/68
f 77/75/71 75/76/70 73/77/68
f 74/78/69 76/79/72 77/75/71
f 75/76/70 77/75/71 76/79/72
f 72/80/67 77/75/71 73/77/68
f 77/81/71 78/65/61 74/82/69
f 30/83/73 40/84/74 78/65/61
f 74/82/69 78/65/61 40/84/74
f 72/85/67 78/65/61 77/81/71
f 72/85/67 7/64/60 78/65/61
f 30/83/73 39/24/24 40/84/74
f 38/21/21 40/84/74 39/24/24
f 30/83/73 13/5/5 39/24/24
f 82/86/75 83/87/76 84/88/77
f 81/89/78 85/90/79 86/91/80
f 87/92/81 81/89/78 83/87/76
f 86/91/80 83/87/76 81/89/78
f 88/93/82 82/86/75 84/88/77
f 84/88/77 89/94/83 88/93/82
f 96/95/84 67/96/56 95/97/85
f 88/93/82 89/94/83 115/98/86
f 97/99/87 115/98/86 89/94/83
f 92/100/88 93/101/89 81/89/78
f 98/102/90 102/103/91 79/104/92
f 105/105/93 104/106/94 106/107/95
f 101/108/96 107/109/97 108/110/98
f 107/109/97 90/111/99 109/112/100
f 108/110/98 99/113/101 101/108/96
f 42/114/27 90/111/99 110/115/102
f 109/112/100 99/113/101 108/110/98
f 44/116/49 98/102/90 25/117/31
f 5/118/4 79/104/92 46/119/103
f 52/120/38 27/121/104 71/122/105
f 79/104/92 49/123/106 48/124/44
f 48/124/44 49/123/106 112/125/45
f 94/126/107 57/127/42 56/128/43
f 113/129/108 111/130/109 94/126/107
f 52/120/38 71/122/105 53/131/39
f 60/132/48 58/133/47 97/99/87
f 44/116/49 89/94/83 102/103/91
f 84/88/77 102/103/91 89/94/83
f 60/132/48 97/99/87 44/116/49
f 114/134/110 115/135/86 116/136/111
f 117/137/112 116/138/111 118/139/113
f 118/139/113 114/140/110 117/137/112
f 96/95/84 68/141/57 67/96/56
f 96/95/84 120/142/114 88/93/82
f 120/142/114 82/86/75 88/93/82
f 124/143/115 87/144/81 123/145/116
f 87/92/81 82/86/75 123/146/116
f 103/147/117 122/148/118 104/106/94
f 81/89/78 87/92/81 92/100/88
f 16/149/9 91/150/119 92/100/88
f 18/151/11 91/150/119 16/149/9
f 100/152/6 92/100/88 99/113/101
f 16/149/9 92/100/88 100/152/6
f 125/153/120 74/82/69 33/19/19
f 40/84/74 33/19/19 74/82/69
f 33/19/19 31/26/26 41/28/28
f 33/19/19 41/28/28 126/154/121
f 126/154/121 70/155/65 127/156/122
f 127/156/122 128/157/123 126/154/121
f 45/70/66 70/155/65 126/154/121
f 20/61/58 132/158/124 129/159/125
f 20/61/58 21/62/59 130/160/126
f 125/153/120 131/161/127 72/85/67
f 131/161/127 125/153/120 132/158/124
f 132/158/124 126/154/121 128/157/123
f 106/107/95 104/106/94 122/148/118
f 133/162/128 127/163/122 70/164/65
f 134/165/129 120/142/114 135/166/130
f 95/97/85 135/166/130 120/142/114
f 134/165/129 123/146/116 82/86/75
f 67/96/56 129/167/125 95/97/85
f 135/166/130 95/97/85 128/168/123
f 42/114/27 110/115/102 133/162/128
f 2/1/1 1/17/17 3/2/2
f 8/50/50 9/34/34 7/64/60
f 9/34/34 6/33/33 7/64/60
f 130/160/126 10/18/18 72/85/67
f 8/50/50 72/85/67 10/18/18
f 12/16/16 11/15/15 19/169/131
f 54/41/41 55/67/63 29/40/40
f 22/12/12 61/68/64 24/13/13
f 25/31/31 26/170/132 4/3/3
f 11/15/15 1/17/17 2/1/1
f 28/32/32 29/40/40 6/33/33
f 10/18/18 130/160/126 21/62/59
f 13/5/5 34/23/23 39/24/24
f 35/22/22 38/21/21 34/23/23
f 34/23/23 36/29/29 35/22/22
f 37/25/25 36/29/29 13/5/5
f 38/21/21 33/19/19 40/84/74
f 31/26/26 33/19/19 14/7/7
f 36/29/29 37/25/25 35/22/22
f 32/20/20 37/25/25 14/7/7
f 25/31/31 43/30/30 44/49/49
f 4/3/3 3/2/2 25/31/31
f 3/2/2 1/17/17 9/34/34
f 2/1/1 5/4/4 46/171/103
f 71/172/105 51/37/37 53/39/39
f 48/44/44 47/35/35 2/1/1
f 2/1/1 46/171/103 48/44/44
f 50/36/36 4/3/3 51/37/37
f 27/173/104 52/38/38 4/3/3
f 26/170/132 27/173/104 4/3/3
f 12/16/16 54/41/41 28/32/32
f 55/67/63 54/41/41 57/42/42
f 12/16/16 113/174/108 56/43/43
f 55/67/63 69/66/62 29/40/40
f 12/16/16 56/43/43 54/41/41
f 12/16/16 19/169/131 113/174/108
f 24/13/13 61/68/64 59/46/46
f 44/49/49 43/30/30 23/14/14
f 10/18/18 23/14/14 43/30/30
f 8/50/50 10/18/18 3/2/2
f 43/30/30 3/2/2 10/18/18
f 60/48/48 44/49/49 24/13/13
f 22/175/12 21/176/59 63/53/53
f 63/53/53 64/177/55 66/51/51
f 63/53/53 21/176/59 64/177/55
f 63/53/53 62/52/52 22/175/12
f 65/54/54 62/56/52 64/58/55
f 64/58/55 21/178/59 65/54/54
f 69/66/62 30/83/73 78/65/61
f 72/85/67 8/50/50 7/64/60
f 69/66/62 6/33/33 29/40/40
f 21/62/59 22/12/12 10/18/18
f 51/37/37 71/172/105 50/36/36
f 75/74/70 76/179/72 74/73/69
f 17/10/10 30/83/73 69/66/62
f 69/66/62 18/11/11 17/10/10
f 17/10/10 13/5/5 30/83/73
f 83/87/76 86/91/80 84/88/77
f 27/121/104 79/104/92 5/118/4
f 42/114/27 31/180/26 90/111/99
f 11/181/15 80/182/133 19/183/131
f 11/181/15 47/184/35 49/123/106
f 100/152/6 90/111/99 15/185/8
f 90/111/99 31/180/26 15/185/8
f 93/101/89 55/186/63 94/126/107
f 97/99/87 61/187/64 115/98/86
f 80/182/133 111/130/109 19/183/131
f 79/104/92 26/188/132 98/102/90
f 90/111/99 107/109/97 105/105/93
f 90/111/99 105/105/93 106/107/95
f 101/108/96 99/113/101 103/147/117
f 107/109/97 101/108/96 104/106/94
f 105/105/93 107/109/97 104/106/94
f 100/152/6 99/113/101 90/111/99
f 109/112/100 90/111/99 99/113/101
f 90/111/99 106/107/95 110/115/102
f 109/112/100 108/110/98 107/109/97
f 44/116/49 102/103/91 98/102/90
f 25/117/31 98/102/90 26/188/132
f 86/91/80 111/130/109 80/182/133
f 80/182/133 79/104/92 86/91/80
f 111/130/109 86/91/80 85/90/79
f 46/119/103 79/104/92 48/124/44
f 27/121/104 5/118/4 71/122/105
f 50/189/36 71/122/105 5/118/4
f 79/104/92 80/182/133 49/123/106
f 11/181/15 49/123/106 80/182/133
f 26/188/132 79/104/92 27/121/104
f 85/90/79 93/101/89 94/126/107
f 85/90/79 94/126/107 111/130/109
f 55/186/63 57/127/42 94/126/107
f 56/128/43 113/129/108 94/126/107
f 113/129/108 19/183/131 111/130/109
f 49/123/106 47/190/35 112/125/45
f 58/133/47 59/191/46 97/99/87
f 59/191/46 61/187/64 97/99/87
f 44/116/49 97/99/87 89/94/83
f 84/88/77 79/104/92 102/103/91
f 79/104/92 84/88/77 86/91/80
f 61/187/64 68/141/57 115/98/86
f 117/192/112 114/134/110 116/136/111
f 115/135/86 114/134/110 96/193/84
f 96/193/84 114/134/110 118/194/113
f 115/195/86 119/196/134 116/138/111
f 118/139/113 116/138/111 119/196/134
f 119/196/134 96/197/84 118/139/113
f 93/101/89 85/90/79 81/89/78
f 82/86/75 87/92/81 83/87/76
f 115/98/86 96/95/84 88/93/82
f 91/150/119 18/151/11 55/186/63
f 55/186/63 93/101/89 91/150/119
f 119/198/134 115/98/86 68/141/57
f 119/198/134 68/141/57 96/95/84
f 104/106/94 101/108/96 103/147/117
f 122/199/118 124/200/115 123/201/116
f 122/199/118 121/202/135 124/200/115
f 87/144/81 121/203/135 122/204/118
f 124/143/115 121/203/135 87/144/81
f 103/147/117 92/100/88 122/148/118
f 92/100/88 87/92/81 122/148/118
f 93/101/89 92/100/88 91/150/119
f 99/113/101 92/100/88 103/147/117
f 126/154/121 132/158/124 33/19/19
f 33/19/19 132/158/124 125/153/120
f 130/160/126 72/85/67 131/161/127
f 45/70/66 126/154/121 41/28/28
f 20/61/58 130/160/126 132/158/124
f 131/161/127 132/158/124 130/160/126
f 129/159/125 67/59/56 20/61/58
f 125/153/120 72/85/67 74/82/69
f 132/158/124 128/157/123 129/159/125
f 122/148/118 134/165/129 110/115/102
f 135/166/130 128/168/123 127/163/122
f 70/164/65 42/114/27 133/162/128
f 122/148/118 110/115/102 106/107/95
f 120/142/114 134/165/129 82/86/75
f 120/142/114 96/95/84 95/97/85
f 128/168/123 95/97/85 129/167/125
f 110/115/102 134/165/129 135/166/130
f 122/148/118 123/146/116 134/165/129
f 127/163/122 133/162/128 135/166/130
f 110/115/102 135/166/130 133/162/128
